<?xml version="1.0" encoding="UTF-8"?>
<svg version="1.1" xmlns="http://www.w3.org/2000/svg" width="488" height="511">
<path d="M0 0 C3.28834293 2.80814047 5.19013146 6.48927712 7.3125 10.1875 C8.19921553 11.71484562 9.08593449 13.24218925 9.97265625 14.76953125 C10.4536377 15.60178223 10.93461914 16.4340332 11.43017578 17.29150391 C13.13021667 20.22466931 14.84324359 23.14998142 16.55859375 26.07421875 C17.7891393 28.17443417 19.0196086 30.27469427 20.25 32.375 C20.82790283 33.36008545 21.40580566 34.3451709 22.0012207 35.36010742 C33 54.18788441 33 54.18788441 33 57 C25.41 57 17.82 57 10 57 C10.33 127.29 10.66 197.58 11 270 C20.11428953 261.6189525 20.11428953 261.6189525 29 253 C29.66 253 30.32 253 31 253 C31 252.34 31 251.68 31 251 C32.64351457 249.63823078 34.31522656 248.31037934 36 247 C36.845625 246.13375 37.69125 245.2675 38.5625 244.375 C40.70218264 242.29018101 42.27083122 241.11188358 45 240 C45 239.34 45 238.68 45 238 C45.66 238 46.32 238 47 238 C47 237.34 47 236.68 47 236 C47.66 236 48.32 236 49 236 C49 235.34 49 234.68 49 234 C49.66 234 50.32 234 51 234 C51 233.34 51 232.68 51 232 C51.66 232 52.32 232 53 232 C53 231.34 53 230.68 53 230 C54.46875 228.5546875 54.46875 228.5546875 56.5 226.875 C59.47498192 224.32727612 62.41411282 221.7651218 65.25 219.0625 C65.87390625 218.47597656 66.4978125 217.88945312 67.140625 217.28515625 C72.93223951 210.16731069 73.59920412 203.9555134 73.609375 195.0625 C73.62591125 193.94182129 73.64244751 192.82114258 73.65948486 191.66650391 C73.70780621 188.11094596 73.72930147 184.55581527 73.75 181 C73.7781728 178.57940577 73.80810205 176.15883131 73.83984375 173.73828125 C73.91356102 167.82559799 73.9652964 161.9130341 74 156 C72.71222656 156.01160156 71.42445313 156.02320313 70.09765625 156.03515625 C68.41927228 156.0445327 66.74088674 156.05363305 65.0625 156.0625 C64.21236328 156.07087891 63.36222656 156.07925781 62.48632812 156.08789062 C61.67744141 156.09111328 60.86855469 156.09433594 60.03515625 156.09765625 C59.2862915 156.10289307 58.53742676 156.10812988 57.76586914 156.11352539 C56 156 56 156 55 155 C54.90106222 153.22553991 54.87200908 151.44713749 54.87060547 149.66992188 C54.86745331 148.53204224 54.86430115 147.3941626 54.86105347 146.22180176 C54.86408981 144.36404114 54.86408981 144.36404114 54.8671875 142.46875 C54.86623077 141.20736206 54.86527405 139.94597412 54.86428833 138.6463623 C54.86360625 135.97302862 54.86496471 133.29978563 54.86962891 130.62646484 C54.87532619 127.19293309 54.87204699 123.7594795 54.86605644 120.32595062 C54.86158238 117.06104757 54.86471117 113.79615407 54.8671875 110.53125 C54.86516327 109.29274292 54.86313904 108.05423584 54.86105347 106.77819824 C54.86578171 105.07137878 54.86578171 105.07137878 54.87060547 103.33007812 C54.87140106 102.32271606 54.87219666 101.315354 54.87301636 100.27746582 C55 98 55 98 56 97 C57.77991924 96.90629376 59.56356739 96.88255729 61.34594727 96.88647461 C63.08164978 96.88665588 63.08164978 96.88665588 64.85241699 96.88684082 C66.69084167 96.89451477 66.69084167 96.89451477 68.56640625 96.90234375 C69.68591675 96.90335083 70.80542725 96.90435791 71.9588623 96.90539551 C76.16008522 96.9106465 80.36129359 96.92460761 84.5625 96.9375 C98.6390625 96.9684375 98.6390625 96.9684375 113 97 C113 116.47 113 135.94 113 156 C106.73 156 100.46 156 94 156 C94.02356567 158.14012573 94.02356567 158.14012573 94.04760742 160.32348633 C94.10225097 165.65920276 94.13647466 170.99489486 94.16479492 176.33081055 C94.17980349 178.63228527 94.20021673 180.93373177 94.22631836 183.23510742 C94.26305213 186.55915325 94.27980624 189.88281819 94.29296875 193.20703125 C94.31619453 194.72959282 94.31619453 194.72959282 94.33988953 196.28291321 C94.34364645 212.5344396 87.81627333 224.7966899 76.765625 236.2578125 C73.77675717 239.22135094 70.71445015 242.02610416 67.4609375 244.6953125 C65.8680255 245.9562516 65.8680255 245.9562516 65 248 C64.34 248 63.68 248 63 248 C63 248.66 63 249.32 63 250 C62.34 250 61.68 250 61 250 C61 250.66 61 251.32 61 252 C59.77734375 253.234375 59.77734375 253.234375 57.9375 254.75 C53.59041532 258.44150997 49.41369113 262.29232035 45.25 266.1875 C44.60023193 266.79368164 43.95046387 267.39986328 43.28100586 268.02441406 C40.68948577 270.44892284 38.12993207 272.86461776 35.671875 275.42578125 C34 277 34 277 32 277 C32 277.66 32 278.32 32 279 C30.49609375 280.48046875 30.49609375 280.48046875 28.4375 282.1875 C20.17293606 289.28392769 14.51922765 295.44231705 11 306 C10.90015752 307.44650771 10.85390741 308.89707097 10.84178162 310.3469696 C10.8319928 311.23457977 10.82220398 312.12218994 10.81211853 313.03669739 C10.80636307 314.00773911 10.8006076 314.97878082 10.79467773 315.97924805 C10.78477814 317.00381104 10.77487854 318.02837402 10.76467896 319.08398438 C10.73304663 322.47653885 10.70829959 325.86910734 10.68359375 329.26171875 C10.66302573 331.61156075 10.6420293 333.96139903 10.62062073 336.31123352 C10.56538443 342.50079342 10.51598198 348.69038679 10.46777344 354.88000488 C10.41756982 361.19412216 10.3618778 367.50819073 10.30664062 373.82226562 C10.19903998 386.21480216 10.0975992 398.60738095 10 411 C11.87461914 411.44835205 11.87461914 411.44835205 13.78710938 411.90576172 C17.65664002 412.83123611 20.96345855 414.27635333 24.5 416.125 C26.06234375 416.93324219 26.06234375 416.93324219 27.65625 417.7578125 C28.81640625 418.37269531 28.81640625 418.37269531 30 419 C30 419.66 30 420.32 30 421 C30.66 421 31.32 421 32 421 C32 421.66 32 422.32 32 423 C32.556875 423.20625 33.11375 423.4125 33.6875 423.625 C39.43974981 427.04525664 42.47393596 433.01948941 45 439 C45.30164063 439.69351562 45.60328125 440.38703125 45.9140625 441.1015625 C49.60121725 451.12924504 49.7104982 464.69562875 46.0546875 474.7578125 C43.35865452 480.48937892 40.08378364 486.13940969 36 491 C35.34 491 34.68 491 34 491 C34 491.66 34 492.32 34 493 C31.82124333 494.59974462 29.65734432 496.06262823 27.375 497.5 C26.75753906 497.90347656 26.14007813 498.30695313 25.50390625 498.72265625 C14.06894187 506.01695984 -0.09459651 506.71633238 -13.1875 503.9375 C-25.16930819 500.52324307 -35.14452101 492.35849286 -41.3125 481.625 C-47.09407077 470.09336565 -49.74975789 456.59607443 -45.75 443.9375 C-45.19993168 442.61071484 -44.61771676 441.29667268 -44 440 C-43.7215625 439.34128906 -43.443125 438.68257813 -43.15625 438.00390625 C-40.65241819 432.46741608 -37.16136238 427.42785357 -33 423 C-32.34 423 -31.68 423 -31 423 C-31 422.34 -31 421.68 -31 421 C-24.93251549 416.29344659 -16.98744166 411 -9 411 C-9.06960294 406.76767975 -9.15790319 402.53625494 -9.26245117 398.3046875 C-9.29540355 396.86957141 -9.32352463 395.43433495 -9.34643555 393.99902344 C-9.59553637 378.79857327 -12.14292644 366.64249025 -23.37109375 355.578125 C-27.17071385 351.96613435 -31.07750615 348.47738816 -35 345 C-36.78150873 343.40582132 -38.5593816 341.80795747 -40.33129883 340.203125 C-41.84809111 338.83088793 -43.37491993 337.46976828 -44.90234375 336.109375 C-47 334 -47 334 -47 332 C-47.66 332 -48.32 332 -49 332 C-49 331.34 -49 330.68 -49 330 C-49.57234375 329.7421875 -50.1446875 329.484375 -50.734375 329.21875 C-53.21128995 327.88634058 -55.1341166 326.34943882 -57.25 324.5 C-57.95640625 323.8915625 -58.6628125 323.283125 -59.390625 322.65625 C-61 321 -61 321 -61 319 C-61.66 319 -62.32 319 -63 319 C-63 318.34 -63 317.68 -63 317 C-63.89295776 316.59056152 -63.89295776 316.59056152 -64.80395508 316.17285156 C-75.80977123 310.29492596 -84.04097814 297.55359478 -90 287 C-90.58007812 286.02933594 -90.58007812 286.02933594 -91.171875 285.0390625 C-93.8461901 278.45419229 -93.08782376 270.85567319 -93.03515625 263.8984375 C-93.03886645 261.52864149 -93.04479229 259.1588481 -93.05273438 256.7890625 C-93.06332246 253.07092042 -93.0622919 249.35470463 -93.02416992 245.63671875 C-92.99113244 242.03539574 -93.00858555 238.43725065 -93.03515625 234.8359375 C-93.01260269 233.72439301 -92.99004913 232.61284851 -92.96681213 231.46762085 C-92.90303951 225.80686943 -92.90303951 225.80686943 -95.76783752 221.22509766 C-97.7982775 219.95781804 -99.81936264 218.97688557 -102 218 C-108.1778881 212.62031691 -111.26419968 206.66566245 -112.3125 198.59375 C-112.72391032 190.46839609 -110.32909731 182.61317857 -105.375 176.125 C-99.5367123 169.94503134 -91.5961912 167.31160618 -83.3125 166.75 C-75.15691479 166.91894809 -68.66542026 169.39478655 -62.7578125 175.02734375 C-55.43750808 183.24235204 -54.17222765 191.31084712 -54.74707031 202.00439453 C-55.31908866 206.51759718 -57.49700921 210.28127083 -60 214 C-60.66 214 -61.32 214 -62 214 C-62 214.66 -62 215.32 -62 216 C-62.66 216 -63.32 216 -64 216 C-64 216.66 -64 217.32 -64 218 C-65.2945142 218.68116806 -66.61146773 219.31992785 -67.9375 219.9375 C-71.0646773 221.83892063 -71.0646773 221.83892063 -72.60668945 225.01757812 C-72.67182739 226.2309082 -72.67182739 226.2309082 -72.73828125 227.46875 C-72.81961304 228.9371936 -72.81961304 228.9371936 -72.90258789 230.43530273 C-72.93473389 231.61165283 -72.96687988 232.78800293 -73 234 C-73.01916473 234.69771515 -73.03832947 235.3954303 -73.05807495 236.11428833 C-73.18165515 241.05743004 -73.22909687 245.99852789 -73.24023438 250.94311523 C-73.24999329 253.5607011 -73.2811333 256.1775174 -73.3125 258.79492188 C-73.36558658 267.31744468 -73.31848274 274.99628066 -70 283 C-69.505 284.485 -69.505 284.485 -69 286 C-68.34 286 -67.68 286 -67 286 C-62.23255814 290.30232558 -62.23255814 290.30232558 -61 294 C-59.66845077 294.670223 -58.33472318 295.3361203 -57 296 C-55.30916029 297.57811706 -53.66675925 299.2089434 -52.0625 300.875 C-49.51841348 303.50952545 -47.07431879 305.94207051 -44.18359375 308.1953125 C-43.46300781 308.79085938 -42.74242187 309.38640625 -42 310 C-42 310.66 -42 311.32 -42 312 C-41.34 312 -40.68 312 -40 312 C-40 312.66 -40 313.32 -40 314 C-39.34 314 -38.68 314 -38 314 C-38 314.66 -38 315.32 -38 316 C-37.42507812 316.24621094 -36.85015625 316.49242187 -36.2578125 316.74609375 C-33.64360173 318.19793053 -31.93663792 319.90287549 -29.875 322.0625 C-27.22095 324.91571933 -27.22095 324.91571933 -24 327 C-24 327.66 -24 328.32 -24 329 C-22.68 329.66 -21.36 330.32 -20 331 C-15.05 335.95 -15.05 335.95 -10 341 C-9.67 247.28 -9.34 153.56 -9 57 C-16.59 57 -24.18 57 -32 57 C-31.05425171 52.27125857 -29.91887857 49.72743375 -27.54296875 45.6328125 C-27.19873367 45.03499969 -26.8544986 44.43718689 -26.49983215 43.82125854 C-25.40227402 41.91862595 -24.29512478 40.02178633 -23.1875 38.125 C-22.4544293 36.85844823 -21.72200115 35.59152433 -20.99023438 34.32421875 C-19.63311004 31.97566375 -18.27162151 29.62986229 -16.90698242 27.28564453 C-14.92215514 23.86587682 -12.95831457 20.43500063 -11 17 C-10.34 17 -9.68 17 -9 17 C-8.89558594 16.45601562 -8.79117188 15.91203125 -8.68359375 15.3515625 C-7.83767011 12.44158518 -6.52477047 10.0278232 -5.0625 7.375 C-4.53785156 6.41335937 -4.01320313 5.45171875 -3.47265625 4.4609375 C-2 2 -2 2 0 0 Z " fill="#F6F6F6" transform="translate(246,5)"/>
<path d="M0 0 C0.66 0.33 1.32 0.66 2 1 C-1.63 4.63 -5.26 8.26 -9 12 C-9 8.06830895 -7.60580385 6.83572772 -5 4 C-4.34 4 -3.68 4 -3 4 C-3 3.34 -3 2.68 -3 2 C-2.01 1.34 -1.02 0.68 0 0 Z " fill="#A09EA0" transform="translate(218,424)"/>
<path d="M0 0 C0.66 0.33 1.32 0.66 2 1 C-1.3 4.3 -4.6 7.6 -8 11 C-8 6.67750434 -5.85084926 5.11604454 -3 2 C-2.01 1.34 -1.02 0.68 0 0 Z " fill="#949394" transform="translate(147,176)"/>
</svg>
